<svg id="Capa_1" enable-background="new 0 0 512 512" height="512" viewBox="0 0 512 512" width="512" xmlns="http://www.w3.org/2000/svg"><g><path d="m411 46h39.769c16.696 0 30.231 13.535 30.231 30.231v29.538c0 16.696-13.535 30.231-30.231 30.231h-39.769z" fill="#fedd33"/><path d="m411 136h39.769c16.696 0 30.231 13.535 30.231 30.231v29.538c0 16.696-13.535 30.231-30.231 30.231h-39.769z" fill="#fbbd43"/><path d="m411 226h39.769c16.696 0 30.231 13.535 30.231 30.231v29.538c0 16.696-13.535 30.231-30.231 30.231h-39.769z" fill="#f19637"/><path d="m406 0h-360c-8.284 0-15 6.716-15 15v482c0 8.284 6.716 15 15 15h360c8.284 0 15-6.716 15-15v-482c0-8.284-6.716-15-15-15z" fill="#13b8e5"/><path d="m421 15v482c0 8.28-6.72 15-15 15h-180v-512h180c8.28 0 15 6.72 15 15z" fill="#00a4dc"/><path d="m339.523 351.791 13.9-26.484c3.734-7.114 1.199-15.907-5.748-19.942l-64.321-37.358c-6.953-4.039-15.854-1.876-20.179 4.903l-16.094 25.226c-38.321-31.179-66.648-74.943-78.607-125.15l29.712-3.545c7.984-.953 13.798-8.032 13.179-16.049l-5.726-74.162c-.618-8.01-7.439-14.111-15.468-13.837l-29.892 1.022c-36.66 1.253-65.172 32.301-63.338 68.937 5.104 101.963 63.323 194.681 152.979 243.561 32.207 17.56 72.556 5.359 89.603-27.122z" fill="#f5f2f1"/><path d="m353.42 325.31-13.9 26.48c-17.04 32.48-57.39 44.68-89.6 27.12-8.25-4.5-16.23-9.36-23.92-14.57v-85.69c6.61 6.94 13.66 13.45 21.08 19.49l16.09-25.23c4.33-6.78 13.23-8.94 20.18-4.9l64.32 37.36c6.95 4.03 9.49 12.82 5.75 19.94z" fill="#e8e1de"/><path d="m331 422h-210c-8.284 0-15 6.716-15 15s6.716 15 15 15h210c8.284 0 15-6.716 15-15s-6.716-15-15-15z" fill="#fedd33"/><path d="m346 437c0 8.28-6.72 15-15 15h-105v-30h105c8.28 0 15 6.72 15 15z" fill="#fbbd43"/></g></svg>